<svg xmlns="http://www.w3.org/2000/svg" viewBox="0 0 325.52 274.36"><defs><style>.cls-1{fill:none;stroke:#fff;stroke-miterlimit:10;stroke-width:10px;}</style></defs><title>Asset 3</title><g id="Layer_2" data-name="Layer 2"><g id="Layer_1-2" data-name="Layer 1"><path class="cls-1" d="M6.87,22.86l60,83.9a9.91,9.91,0,0,0,15.53.78,97.27,97.27,0,0,1,50.93-30.89A9.91,9.91,0,0,0,139,61.23L103.31,11.3a9.91,9.91,0,0,0-8.08-4.15H15A9.93,9.93,0,0,0,6.87,22.86Z"/><path class="cls-1" d="M164.28,88A90.71,90.71,0,1,0,255,178.65,90.7,90.7,0,0,0,164.28,88Zm55.83,77.64-23.74,23.15a3.14,3.14,0,0,0-.9,2.79l5.6,32.67a3.16,3.16,0,0,1-4.58,3.33l-29.34-15.42a3.12,3.12,0,0,0-2.94,0l-29.35,15.42a3.16,3.16,0,0,1-4.58-3.33l5.61-32.67a3.18,3.18,0,0,0-.91-2.79l-23.74-23.15a3.15,3.15,0,0,1,1.75-5.38l32.8-4.77a3.14,3.14,0,0,0,2.38-1.73L162.84,124a3.16,3.16,0,0,1,5.67,0l14.67,29.72a3.14,3.14,0,0,0,2.38,1.73l32.8,4.77A3.15,3.15,0,0,1,220.11,165.59Z"/><path class="cls-1" d="M318.65,20.71l-60,83.91a9.91,9.91,0,0,1-15.53.77,97.25,97.25,0,0,0-50.93-30.88,9.92,9.92,0,0,1-5.67-15.43L222.21,9.15A9.94,9.94,0,0,1,230.29,5h80.28A9.93,9.93,0,0,1,318.65,20.71Z"/></g></g></svg>